<mxfile host="Electron" modified="2024-01-07T12:36:12.342Z" agent="Mozilla/5.0 (Windows NT 10.0; Win64; x64) AppleWebKit/537.36 (KHTML, like Gecko) draw.io/22.1.16 Chrome/120.0.6099.109 Electron/28.1.0 Safari/537.36" etag="bqwaYckYt9VkYc8OqAC2" version="22.1.16" type="device">
  <diagram name="Page-1" id="05uX9r06Ww7T9rV9hOF3">
    <mxGraphModel dx="2234" dy="884" grid="0" gridSize="10" guides="1" tooltips="1" connect="1" arrows="1" fold="1" page="0" pageScale="1" pageWidth="850" pageHeight="1100" math="0" shadow="0">
      <root>
        <mxCell id="0" />
        <mxCell id="1" parent="0" />
        <mxCell id="bLYzslf_lQTWpFLoNn4m-1" value="7" style="ellipse;whiteSpace=wrap;html=1;aspect=fixed;" parent="1" vertex="1">
          <mxGeometry x="-426" y="617" width="55" height="55" as="geometry" />
        </mxCell>
        <mxCell id="bLYzslf_lQTWpFLoNn4m-2" value="1" style="ellipse;whiteSpace=wrap;html=1;aspect=fixed;" parent="1" vertex="1">
          <mxGeometry x="-426" y="149" width="55" height="55" as="geometry" />
        </mxCell>
        <mxCell id="bLYzslf_lQTWpFLoNn4m-3" value="4" style="ellipse;whiteSpace=wrap;html=1;aspect=fixed;" parent="1" vertex="1">
          <mxGeometry x="-426" y="383" width="55" height="55" as="geometry" />
        </mxCell>
        <mxCell id="bLYzslf_lQTWpFLoNn4m-4" value="10" style="ellipse;whiteSpace=wrap;html=1;aspect=fixed;" parent="1" vertex="1">
          <mxGeometry x="-426" y="854" width="55" height="55" as="geometry" />
        </mxCell>
        <mxCell id="bLYzslf_lQTWpFLoNn4m-5" value="3" style="ellipse;whiteSpace=wrap;html=1;aspect=fixed;" parent="1" vertex="1">
          <mxGeometry x="-426" y="303" width="55" height="55" as="geometry" />
        </mxCell>
        <mxCell id="bLYzslf_lQTWpFLoNn4m-6" value="9" style="ellipse;whiteSpace=wrap;html=1;aspect=fixed;" parent="1" vertex="1">
          <mxGeometry x="-426" y="775" width="55" height="55" as="geometry" />
        </mxCell>
        <mxCell id="bLYzslf_lQTWpFLoNn4m-7" value="8" style="ellipse;whiteSpace=wrap;html=1;aspect=fixed;" parent="1" vertex="1">
          <mxGeometry x="-141" y="854" width="55" height="55" as="geometry" />
        </mxCell>
        <mxCell id="bLYzslf_lQTWpFLoNn4m-8" value="7" style="ellipse;whiteSpace=wrap;html=1;aspect=fixed;" parent="1" vertex="1">
          <mxGeometry x="-141" y="775" width="55" height="55" as="geometry" />
        </mxCell>
        <mxCell id="bLYzslf_lQTWpFLoNn4m-9" value="11" style="ellipse;whiteSpace=wrap;html=1;aspect=fixed;" parent="1" vertex="1">
          <mxGeometry x="-141" y="696" width="55" height="55" as="geometry" />
        </mxCell>
        <mxCell id="bLYzslf_lQTWpFLoNn4m-10" value="6" style="ellipse;whiteSpace=wrap;html=1;aspect=fixed;" parent="1" vertex="1">
          <mxGeometry x="-426" y="538" width="55" height="55" as="geometry" />
        </mxCell>
        <mxCell id="bLYzslf_lQTWpFLoNn4m-11" value="11" style="ellipse;whiteSpace=wrap;html=1;aspect=fixed;" parent="1" vertex="1">
          <mxGeometry x="-288" y="149" width="55" height="55" as="geometry" />
        </mxCell>
        <mxCell id="bLYzslf_lQTWpFLoNn4m-12" value="5" style="ellipse;whiteSpace=wrap;html=1;aspect=fixed;" parent="1" vertex="1">
          <mxGeometry x="-426" y="459" width="55" height="55" as="geometry" />
        </mxCell>
        <mxCell id="bLYzslf_lQTWpFLoNn4m-13" value="8" style="ellipse;whiteSpace=wrap;html=1;aspect=fixed;" parent="1" vertex="1">
          <mxGeometry x="-426" y="696" width="55" height="55" as="geometry" />
        </mxCell>
        <mxCell id="bLYzslf_lQTWpFLoNn4m-14" value="2" style="ellipse;whiteSpace=wrap;html=1;aspect=fixed;" parent="1" vertex="1">
          <mxGeometry x="-426" y="226" width="55" height="55" as="geometry" />
        </mxCell>
        <mxCell id="bLYzslf_lQTWpFLoNn4m-15" value="" style="endArrow=classic;html=1;rounded=0;entryX=0.5;entryY=0;entryDx=0;entryDy=0;exitX=0.5;exitY=1;exitDx=0;exitDy=0;" parent="1" source="bLYzslf_lQTWpFLoNn4m-13" target="bLYzslf_lQTWpFLoNn4m-6" edge="1">
          <mxGeometry width="50" height="50" relative="1" as="geometry">
            <mxPoint x="198" y="463" as="sourcePoint" />
            <mxPoint x="248" y="413" as="targetPoint" />
          </mxGeometry>
        </mxCell>
        <mxCell id="bLYzslf_lQTWpFLoNn4m-16" value="" style="endArrow=classic;html=1;rounded=0;entryX=0.5;entryY=0;entryDx=0;entryDy=0;exitX=0.5;exitY=1;exitDx=0;exitDy=0;" parent="1" source="bLYzslf_lQTWpFLoNn4m-9" target="bLYzslf_lQTWpFLoNn4m-8" edge="1">
          <mxGeometry width="50" height="50" relative="1" as="geometry">
            <mxPoint x="198" y="463" as="sourcePoint" />
            <mxPoint x="248" y="413" as="targetPoint" />
          </mxGeometry>
        </mxCell>
        <mxCell id="bLYzslf_lQTWpFLoNn4m-17" value="" style="endArrow=classic;html=1;rounded=0;entryX=0.5;entryY=0;entryDx=0;entryDy=0;exitX=0.5;exitY=1;exitDx=0;exitDy=0;" parent="1" source="bLYzslf_lQTWpFLoNn4m-8" target="bLYzslf_lQTWpFLoNn4m-7" edge="1">
          <mxGeometry width="50" height="50" relative="1" as="geometry">
            <mxPoint x="198" y="639" as="sourcePoint" />
            <mxPoint x="248" y="589" as="targetPoint" />
          </mxGeometry>
        </mxCell>
        <mxCell id="bLYzslf_lQTWpFLoNn4m-18" value="" style="endArrow=classic;html=1;rounded=0;entryX=0;entryY=0.5;entryDx=0;entryDy=0;exitX=1;exitY=0;exitDx=0;exitDy=0;" parent="1" source="bLYzslf_lQTWpFLoNn4m-7" target="bLYzslf_lQTWpFLoNn4m-29" edge="1">
          <mxGeometry width="50" height="50" relative="1" as="geometry">
            <mxPoint x="198" y="639" as="sourcePoint" />
            <mxPoint x="175.5" y="716" as="targetPoint" />
          </mxGeometry>
        </mxCell>
        <mxCell id="bLYzslf_lQTWpFLoNn4m-20" value="" style="endArrow=classic;html=1;rounded=0;entryX=0.5;entryY=0;entryDx=0;entryDy=0;exitX=0.5;exitY=1;exitDx=0;exitDy=0;" parent="1" source="bLYzslf_lQTWpFLoNn4m-14" target="bLYzslf_lQTWpFLoNn4m-5" edge="1">
          <mxGeometry width="50" height="50" relative="1" as="geometry">
            <mxPoint x="197" y="388" as="sourcePoint" />
            <mxPoint x="247" y="338" as="targetPoint" />
          </mxGeometry>
        </mxCell>
        <mxCell id="bLYzslf_lQTWpFLoNn4m-21" value="" style="endArrow=classic;html=1;rounded=0;entryX=0.5;entryY=0;entryDx=0;entryDy=0;exitX=0.5;exitY=1;exitDx=0;exitDy=0;" parent="1" source="bLYzslf_lQTWpFLoNn4m-5" target="bLYzslf_lQTWpFLoNn4m-3" edge="1">
          <mxGeometry width="50" height="50" relative="1" as="geometry">
            <mxPoint x="197" y="388" as="sourcePoint" />
            <mxPoint x="247" y="338" as="targetPoint" />
          </mxGeometry>
        </mxCell>
        <mxCell id="bLYzslf_lQTWpFLoNn4m-22" value="" style="endArrow=classic;html=1;rounded=0;entryX=0.5;entryY=0;entryDx=0;entryDy=0;exitX=0.5;exitY=1;exitDx=0;exitDy=0;" parent="1" source="bLYzslf_lQTWpFLoNn4m-3" target="bLYzslf_lQTWpFLoNn4m-12" edge="1">
          <mxGeometry width="50" height="50" relative="1" as="geometry">
            <mxPoint x="197" y="388" as="sourcePoint" />
            <mxPoint x="247" y="338" as="targetPoint" />
          </mxGeometry>
        </mxCell>
        <mxCell id="bLYzslf_lQTWpFLoNn4m-23" value="" style="endArrow=classic;html=1;rounded=0;entryX=0.5;entryY=0;entryDx=0;entryDy=0;exitX=0.5;exitY=1;exitDx=0;exitDy=0;" parent="1" source="bLYzslf_lQTWpFLoNn4m-12" target="bLYzslf_lQTWpFLoNn4m-10" edge="1">
          <mxGeometry width="50" height="50" relative="1" as="geometry">
            <mxPoint x="197" y="388" as="sourcePoint" />
            <mxPoint x="247" y="338" as="targetPoint" />
          </mxGeometry>
        </mxCell>
        <mxCell id="bLYzslf_lQTWpFLoNn4m-24" value="" style="endArrow=classic;html=1;rounded=0;entryX=0.5;entryY=0;entryDx=0;entryDy=0;exitX=0.5;exitY=1;exitDx=0;exitDy=0;" parent="1" source="bLYzslf_lQTWpFLoNn4m-10" target="bLYzslf_lQTWpFLoNn4m-1" edge="1">
          <mxGeometry width="50" height="50" relative="1" as="geometry">
            <mxPoint x="197" y="388" as="sourcePoint" />
            <mxPoint x="247" y="338" as="targetPoint" />
          </mxGeometry>
        </mxCell>
        <mxCell id="bLYzslf_lQTWpFLoNn4m-25" value="" style="endArrow=classic;html=1;rounded=0;entryX=0.5;entryY=0;entryDx=0;entryDy=0;exitX=0.5;exitY=1;exitDx=0;exitDy=0;" parent="1" source="bLYzslf_lQTWpFLoNn4m-1" target="bLYzslf_lQTWpFLoNn4m-13" edge="1">
          <mxGeometry width="50" height="50" relative="1" as="geometry">
            <mxPoint x="197" y="443" as="sourcePoint" />
            <mxPoint x="247" y="393" as="targetPoint" />
          </mxGeometry>
        </mxCell>
        <mxCell id="bLYzslf_lQTWpFLoNn4m-26" value="" style="endArrow=classic;html=1;rounded=0;entryX=0.5;entryY=0;entryDx=0;entryDy=0;exitX=0.5;exitY=1;exitDx=0;exitDy=0;" parent="1" source="bLYzslf_lQTWpFLoNn4m-6" target="bLYzslf_lQTWpFLoNn4m-4" edge="1">
          <mxGeometry width="50" height="50" relative="1" as="geometry">
            <mxPoint x="197" y="443" as="sourcePoint" />
            <mxPoint x="247" y="393" as="targetPoint" />
          </mxGeometry>
        </mxCell>
        <mxCell id="bLYzslf_lQTWpFLoNn4m-27" value="" style="endArrow=classic;html=1;rounded=0;entryX=0;entryY=0.5;entryDx=0;entryDy=0;exitX=1;exitY=0;exitDx=0;exitDy=0;" parent="1" source="bLYzslf_lQTWpFLoNn4m-4" target="bLYzslf_lQTWpFLoNn4m-11" edge="1">
          <mxGeometry width="50" height="50" relative="1" as="geometry">
            <mxPoint x="197" y="443" as="sourcePoint" />
            <mxPoint x="247" y="393" as="targetPoint" />
          </mxGeometry>
        </mxCell>
        <mxCell id="bLYzslf_lQTWpFLoNn4m-29" value="9" style="ellipse;whiteSpace=wrap;html=1;aspect=fixed;" parent="1" vertex="1">
          <mxGeometry x="-14" y="149" width="55" height="55" as="geometry" />
        </mxCell>
        <mxCell id="fTqVYzRrUTEL-BXz6Yvu-1" value="" style="endArrow=classic;html=1;rounded=0;entryX=0.491;entryY=0;entryDx=0;entryDy=0;entryPerimeter=0;exitX=0.5;exitY=1;exitDx=0;exitDy=0;" edge="1" parent="1" source="fTqVYzRrUTEL-BXz6Yvu-5" target="fTqVYzRrUTEL-BXz6Yvu-6">
          <mxGeometry width="50" height="50" relative="1" as="geometry">
            <mxPoint x="168" y="514" as="sourcePoint" />
            <mxPoint x="218" y="464" as="targetPoint" />
          </mxGeometry>
        </mxCell>
        <mxCell id="fTqVYzRrUTEL-BXz6Yvu-2" value="" style="endArrow=classic;html=1;rounded=0;entryX=0.5;entryY=0;entryDx=0;entryDy=0;exitX=0.5;exitY=1;exitDx=0;exitDy=0;" edge="1" parent="1" source="bLYzslf_lQTWpFLoNn4m-2" target="bLYzslf_lQTWpFLoNn4m-14">
          <mxGeometry width="50" height="50" relative="1" as="geometry">
            <mxPoint x="168" y="514" as="sourcePoint" />
            <mxPoint x="218" y="464" as="targetPoint" />
          </mxGeometry>
        </mxCell>
        <mxCell id="fTqVYzRrUTEL-BXz6Yvu-5" value="7" style="ellipse;whiteSpace=wrap;html=1;aspect=fixed;" vertex="1" parent="1">
          <mxGeometry x="-288" y="226" width="55" height="55" as="geometry" />
        </mxCell>
        <mxCell id="fTqVYzRrUTEL-BXz6Yvu-6" value="8" style="ellipse;whiteSpace=wrap;html=1;aspect=fixed;" vertex="1" parent="1">
          <mxGeometry x="-288" y="303" width="55" height="55" as="geometry" />
        </mxCell>
        <mxCell id="fTqVYzRrUTEL-BXz6Yvu-7" value="9" style="ellipse;whiteSpace=wrap;html=1;aspect=fixed;" vertex="1" parent="1">
          <mxGeometry x="-288" y="383" width="55" height="55" as="geometry" />
        </mxCell>
        <mxCell id="fTqVYzRrUTEL-BXz6Yvu-8" value="7" style="ellipse;whiteSpace=wrap;html=1;aspect=fixed;" vertex="1" parent="1">
          <mxGeometry x="-288" y="459" width="55" height="55" as="geometry" />
        </mxCell>
        <mxCell id="fTqVYzRrUTEL-BXz6Yvu-9" value="12" style="ellipse;whiteSpace=wrap;html=1;aspect=fixed;" vertex="1" parent="1">
          <mxGeometry x="-288" y="538" width="55" height="55" as="geometry" />
        </mxCell>
        <mxCell id="fTqVYzRrUTEL-BXz6Yvu-10" value="" style="endArrow=classic;html=1;rounded=0;entryX=0.5;entryY=0;entryDx=0;entryDy=0;exitX=0.5;exitY=1;exitDx=0;exitDy=0;" edge="1" parent="1" source="bLYzslf_lQTWpFLoNn4m-11" target="fTqVYzRrUTEL-BXz6Yvu-5">
          <mxGeometry width="50" height="50" relative="1" as="geometry">
            <mxPoint x="147" y="539" as="sourcePoint" />
            <mxPoint x="197" y="489" as="targetPoint" />
          </mxGeometry>
        </mxCell>
        <mxCell id="fTqVYzRrUTEL-BXz6Yvu-11" value="" style="endArrow=classic;html=1;rounded=0;entryX=0.5;entryY=0;entryDx=0;entryDy=0;exitX=0.5;exitY=1;exitDx=0;exitDy=0;" edge="1" parent="1" source="fTqVYzRrUTEL-BXz6Yvu-6" target="fTqVYzRrUTEL-BXz6Yvu-7">
          <mxGeometry width="50" height="50" relative="1" as="geometry">
            <mxPoint x="147" y="539" as="sourcePoint" />
            <mxPoint x="197" y="489" as="targetPoint" />
          </mxGeometry>
        </mxCell>
        <mxCell id="fTqVYzRrUTEL-BXz6Yvu-12" value="" style="endArrow=classic;html=1;rounded=0;entryX=0.5;entryY=0;entryDx=0;entryDy=0;exitX=0.5;exitY=1;exitDx=0;exitDy=0;" edge="1" parent="1" source="fTqVYzRrUTEL-BXz6Yvu-7" target="fTqVYzRrUTEL-BXz6Yvu-8">
          <mxGeometry width="50" height="50" relative="1" as="geometry">
            <mxPoint x="147" y="539" as="sourcePoint" />
            <mxPoint x="197" y="489" as="targetPoint" />
          </mxGeometry>
        </mxCell>
        <mxCell id="fTqVYzRrUTEL-BXz6Yvu-13" value="" style="endArrow=classic;html=1;rounded=0;entryX=0.5;entryY=0;entryDx=0;entryDy=0;exitX=0.5;exitY=1;exitDx=0;exitDy=0;" edge="1" parent="1" source="fTqVYzRrUTEL-BXz6Yvu-8" target="fTqVYzRrUTEL-BXz6Yvu-9">
          <mxGeometry width="50" height="50" relative="1" as="geometry">
            <mxPoint x="147" y="539" as="sourcePoint" />
            <mxPoint x="197" y="489" as="targetPoint" />
          </mxGeometry>
        </mxCell>
        <mxCell id="fTqVYzRrUTEL-BXz6Yvu-14" value="10" style="ellipse;whiteSpace=wrap;html=1;aspect=fixed;" vertex="1" parent="1">
          <mxGeometry x="-141" y="617" width="55" height="55" as="geometry" />
        </mxCell>
        <mxCell id="fTqVYzRrUTEL-BXz6Yvu-15" value="9" style="ellipse;whiteSpace=wrap;html=1;aspect=fixed;" vertex="1" parent="1">
          <mxGeometry x="-141" y="535" width="55" height="55" as="geometry" />
        </mxCell>
        <mxCell id="fTqVYzRrUTEL-BXz6Yvu-16" value="8" style="ellipse;whiteSpace=wrap;html=1;aspect=fixed;" vertex="1" parent="1">
          <mxGeometry x="-141" y="459" width="55" height="55" as="geometry" />
        </mxCell>
        <mxCell id="fTqVYzRrUTEL-BXz6Yvu-17" value="7" style="ellipse;whiteSpace=wrap;html=1;aspect=fixed;" vertex="1" parent="1">
          <mxGeometry x="-141" y="383" width="55" height="55" as="geometry" />
        </mxCell>
        <mxCell id="fTqVYzRrUTEL-BXz6Yvu-18" value="6" style="ellipse;whiteSpace=wrap;html=1;aspect=fixed;" vertex="1" parent="1">
          <mxGeometry x="-141" y="303" width="55" height="55" as="geometry" />
        </mxCell>
        <mxCell id="fTqVYzRrUTEL-BXz6Yvu-19" value="5" style="ellipse;whiteSpace=wrap;html=1;aspect=fixed;" vertex="1" parent="1">
          <mxGeometry x="-141" y="226" width="55" height="55" as="geometry" />
        </mxCell>
        <mxCell id="fTqVYzRrUTEL-BXz6Yvu-20" value="4" style="ellipse;whiteSpace=wrap;html=1;aspect=fixed;" vertex="1" parent="1">
          <mxGeometry x="-141" y="149" width="55" height="55" as="geometry" />
        </mxCell>
        <mxCell id="fTqVYzRrUTEL-BXz6Yvu-21" value="13" style="ellipse;whiteSpace=wrap;html=1;aspect=fixed;" vertex="1" parent="1">
          <mxGeometry x="-288" y="854" width="55" height="55" as="geometry" />
        </mxCell>
        <mxCell id="fTqVYzRrUTEL-BXz6Yvu-22" value="15" style="ellipse;whiteSpace=wrap;html=1;aspect=fixed;" vertex="1" parent="1">
          <mxGeometry x="-288" y="775" width="55" height="55" as="geometry" />
        </mxCell>
        <mxCell id="fTqVYzRrUTEL-BXz6Yvu-23" value="14" style="ellipse;whiteSpace=wrap;html=1;aspect=fixed;" vertex="1" parent="1">
          <mxGeometry x="-288" y="696" width="55" height="55" as="geometry" />
        </mxCell>
        <mxCell id="fTqVYzRrUTEL-BXz6Yvu-24" value="13" style="ellipse;whiteSpace=wrap;html=1;aspect=fixed;" vertex="1" parent="1">
          <mxGeometry x="-288" y="617" width="55" height="55" as="geometry" />
        </mxCell>
        <mxCell id="fTqVYzRrUTEL-BXz6Yvu-25" value="" style="endArrow=classic;html=1;rounded=0;entryX=0.5;entryY=0;entryDx=0;entryDy=0;exitX=0.5;exitY=1;exitDx=0;exitDy=0;" edge="1" parent="1" source="fTqVYzRrUTEL-BXz6Yvu-9" target="fTqVYzRrUTEL-BXz6Yvu-24">
          <mxGeometry width="50" height="50" relative="1" as="geometry">
            <mxPoint x="147" y="539" as="sourcePoint" />
            <mxPoint x="197" y="489" as="targetPoint" />
          </mxGeometry>
        </mxCell>
        <mxCell id="fTqVYzRrUTEL-BXz6Yvu-26" value="" style="endArrow=classic;html=1;rounded=0;entryX=0.5;entryY=0;entryDx=0;entryDy=0;exitX=0.5;exitY=1;exitDx=0;exitDy=0;" edge="1" parent="1" source="fTqVYzRrUTEL-BXz6Yvu-24" target="fTqVYzRrUTEL-BXz6Yvu-23">
          <mxGeometry width="50" height="50" relative="1" as="geometry">
            <mxPoint x="147" y="539" as="sourcePoint" />
            <mxPoint x="197" y="489" as="targetPoint" />
          </mxGeometry>
        </mxCell>
        <mxCell id="fTqVYzRrUTEL-BXz6Yvu-27" value="" style="endArrow=classic;html=1;rounded=0;entryX=0.5;entryY=0;entryDx=0;entryDy=0;exitX=0.5;exitY=1;exitDx=0;exitDy=0;" edge="1" parent="1" source="fTqVYzRrUTEL-BXz6Yvu-23" target="fTqVYzRrUTEL-BXz6Yvu-22">
          <mxGeometry width="50" height="50" relative="1" as="geometry">
            <mxPoint x="147" y="539" as="sourcePoint" />
            <mxPoint x="197" y="489" as="targetPoint" />
          </mxGeometry>
        </mxCell>
        <mxCell id="fTqVYzRrUTEL-BXz6Yvu-28" value="" style="endArrow=classic;html=1;rounded=0;entryX=0.5;entryY=0;entryDx=0;entryDy=0;exitX=0.5;exitY=1;exitDx=0;exitDy=0;" edge="1" parent="1" source="fTqVYzRrUTEL-BXz6Yvu-22" target="fTqVYzRrUTEL-BXz6Yvu-21">
          <mxGeometry width="50" height="50" relative="1" as="geometry">
            <mxPoint x="147" y="539" as="sourcePoint" />
            <mxPoint x="197" y="489" as="targetPoint" />
          </mxGeometry>
        </mxCell>
        <mxCell id="fTqVYzRrUTEL-BXz6Yvu-29" value="" style="endArrow=classic;html=1;rounded=0;entryX=0;entryY=0.5;entryDx=0;entryDy=0;exitX=1;exitY=0;exitDx=0;exitDy=0;" edge="1" parent="1" source="fTqVYzRrUTEL-BXz6Yvu-21" target="fTqVYzRrUTEL-BXz6Yvu-20">
          <mxGeometry width="50" height="50" relative="1" as="geometry">
            <mxPoint x="147" y="539" as="sourcePoint" />
            <mxPoint x="197" y="489" as="targetPoint" />
          </mxGeometry>
        </mxCell>
        <mxCell id="fTqVYzRrUTEL-BXz6Yvu-30" value="" style="endArrow=classic;html=1;rounded=0;entryX=0.5;entryY=0;entryDx=0;entryDy=0;exitX=0.5;exitY=1;exitDx=0;exitDy=0;" edge="1" parent="1" source="fTqVYzRrUTEL-BXz6Yvu-20" target="fTqVYzRrUTEL-BXz6Yvu-19">
          <mxGeometry width="50" height="50" relative="1" as="geometry">
            <mxPoint x="147" y="539" as="sourcePoint" />
            <mxPoint x="197" y="489" as="targetPoint" />
          </mxGeometry>
        </mxCell>
        <mxCell id="fTqVYzRrUTEL-BXz6Yvu-31" value="" style="endArrow=classic;html=1;rounded=0;entryX=0.5;entryY=0;entryDx=0;entryDy=0;exitX=0.5;exitY=1;exitDx=0;exitDy=0;" edge="1" parent="1" source="fTqVYzRrUTEL-BXz6Yvu-19" target="fTqVYzRrUTEL-BXz6Yvu-18">
          <mxGeometry width="50" height="50" relative="1" as="geometry">
            <mxPoint x="147" y="539" as="sourcePoint" />
            <mxPoint x="197" y="489" as="targetPoint" />
          </mxGeometry>
        </mxCell>
        <mxCell id="fTqVYzRrUTEL-BXz6Yvu-32" value="" style="endArrow=classic;html=1;rounded=0;entryX=0.5;entryY=0;entryDx=0;entryDy=0;exitX=0.5;exitY=1;exitDx=0;exitDy=0;" edge="1" parent="1" source="fTqVYzRrUTEL-BXz6Yvu-18" target="fTqVYzRrUTEL-BXz6Yvu-17">
          <mxGeometry width="50" height="50" relative="1" as="geometry">
            <mxPoint x="147" y="539" as="sourcePoint" />
            <mxPoint x="197" y="489" as="targetPoint" />
          </mxGeometry>
        </mxCell>
        <mxCell id="fTqVYzRrUTEL-BXz6Yvu-33" value="" style="endArrow=classic;html=1;rounded=0;entryX=0.5;entryY=0;entryDx=0;entryDy=0;exitX=0.5;exitY=1;exitDx=0;exitDy=0;" edge="1" parent="1" source="fTqVYzRrUTEL-BXz6Yvu-17" target="fTqVYzRrUTEL-BXz6Yvu-16">
          <mxGeometry width="50" height="50" relative="1" as="geometry">
            <mxPoint x="147" y="539" as="sourcePoint" />
            <mxPoint x="197" y="489" as="targetPoint" />
          </mxGeometry>
        </mxCell>
        <mxCell id="fTqVYzRrUTEL-BXz6Yvu-34" value="" style="endArrow=classic;html=1;rounded=0;entryX=0.5;entryY=0;entryDx=0;entryDy=0;exitX=0.5;exitY=1;exitDx=0;exitDy=0;" edge="1" parent="1" source="fTqVYzRrUTEL-BXz6Yvu-16" target="fTqVYzRrUTEL-BXz6Yvu-15">
          <mxGeometry width="50" height="50" relative="1" as="geometry">
            <mxPoint x="147" y="539" as="sourcePoint" />
            <mxPoint x="197" y="489" as="targetPoint" />
          </mxGeometry>
        </mxCell>
        <mxCell id="fTqVYzRrUTEL-BXz6Yvu-35" value="" style="endArrow=classic;html=1;rounded=0;entryX=0.5;entryY=0;entryDx=0;entryDy=0;exitX=0.5;exitY=1;exitDx=0;exitDy=0;" edge="1" parent="1" source="fTqVYzRrUTEL-BXz6Yvu-15" target="fTqVYzRrUTEL-BXz6Yvu-14">
          <mxGeometry width="50" height="50" relative="1" as="geometry">
            <mxPoint x="147" y="539" as="sourcePoint" />
            <mxPoint x="197" y="489" as="targetPoint" />
          </mxGeometry>
        </mxCell>
        <mxCell id="fTqVYzRrUTEL-BXz6Yvu-36" value="" style="endArrow=classic;html=1;rounded=0;entryX=0.5;entryY=0;entryDx=0;entryDy=0;exitX=0.5;exitY=1;exitDx=0;exitDy=0;" edge="1" parent="1" source="fTqVYzRrUTEL-BXz6Yvu-14" target="bLYzslf_lQTWpFLoNn4m-9">
          <mxGeometry width="50" height="50" relative="1" as="geometry">
            <mxPoint x="147" y="539" as="sourcePoint" />
            <mxPoint x="197" y="489" as="targetPoint" />
          </mxGeometry>
        </mxCell>
        <mxCell id="fTqVYzRrUTEL-BXz6Yvu-37" value="7" style="ellipse;whiteSpace=wrap;html=1;aspect=fixed;" vertex="1" parent="1">
          <mxGeometry x="-14" y="383" width="55" height="55" as="geometry" />
        </mxCell>
        <mxCell id="fTqVYzRrUTEL-BXz6Yvu-38" value="12" style="ellipse;whiteSpace=wrap;html=1;aspect=fixed;" vertex="1" parent="1">
          <mxGeometry x="-14" y="459" width="55" height="55" as="geometry" />
        </mxCell>
        <mxCell id="fTqVYzRrUTEL-BXz6Yvu-39" value="13" style="ellipse;whiteSpace=wrap;html=1;aspect=fixed;" vertex="1" parent="1">
          <mxGeometry x="-14" y="538" width="55" height="55" as="geometry" />
        </mxCell>
        <mxCell id="fTqVYzRrUTEL-BXz6Yvu-40" value="14" style="ellipse;whiteSpace=wrap;html=1;aspect=fixed;" vertex="1" parent="1">
          <mxGeometry x="-14" y="617" width="55" height="55" as="geometry" />
        </mxCell>
        <mxCell id="fTqVYzRrUTEL-BXz6Yvu-41" value="15" style="ellipse;whiteSpace=wrap;html=1;aspect=fixed;" vertex="1" parent="1">
          <mxGeometry x="-14" y="696" width="55" height="55" as="geometry" />
        </mxCell>
        <mxCell id="fTqVYzRrUTEL-BXz6Yvu-42" value="13" style="ellipse;whiteSpace=wrap;html=1;aspect=fixed;" vertex="1" parent="1">
          <mxGeometry x="-14" y="775" width="55" height="55" as="geometry" />
        </mxCell>
        <mxCell id="fTqVYzRrUTEL-BXz6Yvu-43" value="4" style="ellipse;whiteSpace=wrap;html=1;aspect=fixed;" vertex="1" parent="1">
          <mxGeometry x="-14" y="854" width="55" height="55" as="geometry" />
        </mxCell>
        <mxCell id="fTqVYzRrUTEL-BXz6Yvu-44" value="10" style="ellipse;whiteSpace=wrap;html=1;aspect=fixed;" vertex="1" parent="1">
          <mxGeometry x="-14" y="226" width="55" height="55" as="geometry" />
        </mxCell>
        <mxCell id="fTqVYzRrUTEL-BXz6Yvu-45" value="11" style="ellipse;whiteSpace=wrap;html=1;aspect=fixed;" vertex="1" parent="1">
          <mxGeometry x="-14" y="303" width="55" height="55" as="geometry" />
        </mxCell>
        <mxCell id="fTqVYzRrUTEL-BXz6Yvu-46" value="" style="endArrow=classic;html=1;rounded=0;entryX=0.5;entryY=0;entryDx=0;entryDy=0;exitX=0.5;exitY=1;exitDx=0;exitDy=0;" edge="1" parent="1" source="bLYzslf_lQTWpFLoNn4m-29" target="fTqVYzRrUTEL-BXz6Yvu-44">
          <mxGeometry width="50" height="50" relative="1" as="geometry">
            <mxPoint x="147" y="539" as="sourcePoint" />
            <mxPoint x="197" y="489" as="targetPoint" />
          </mxGeometry>
        </mxCell>
        <mxCell id="fTqVYzRrUTEL-BXz6Yvu-47" value="" style="endArrow=classic;html=1;rounded=0;entryX=0.5;entryY=0;entryDx=0;entryDy=0;exitX=0.5;exitY=1;exitDx=0;exitDy=0;" edge="1" parent="1" source="fTqVYzRrUTEL-BXz6Yvu-42" target="fTqVYzRrUTEL-BXz6Yvu-43">
          <mxGeometry width="50" height="50" relative="1" as="geometry">
            <mxPoint x="147" y="539" as="sourcePoint" />
            <mxPoint x="197" y="489" as="targetPoint" />
          </mxGeometry>
        </mxCell>
        <mxCell id="fTqVYzRrUTEL-BXz6Yvu-48" value="" style="endArrow=classic;html=1;rounded=0;entryX=0.5;entryY=0;entryDx=0;entryDy=0;exitX=0.5;exitY=1;exitDx=0;exitDy=0;" edge="1" parent="1" source="fTqVYzRrUTEL-BXz6Yvu-44" target="fTqVYzRrUTEL-BXz6Yvu-45">
          <mxGeometry width="50" height="50" relative="1" as="geometry">
            <mxPoint x="147" y="539" as="sourcePoint" />
            <mxPoint x="197" y="489" as="targetPoint" />
          </mxGeometry>
        </mxCell>
        <mxCell id="fTqVYzRrUTEL-BXz6Yvu-49" value="" style="endArrow=classic;html=1;rounded=0;entryX=0.5;entryY=0;entryDx=0;entryDy=0;exitX=0.5;exitY=1;exitDx=0;exitDy=0;" edge="1" parent="1" source="fTqVYzRrUTEL-BXz6Yvu-45" target="fTqVYzRrUTEL-BXz6Yvu-37">
          <mxGeometry width="50" height="50" relative="1" as="geometry">
            <mxPoint x="147" y="539" as="sourcePoint" />
            <mxPoint x="197" y="489" as="targetPoint" />
          </mxGeometry>
        </mxCell>
        <mxCell id="fTqVYzRrUTEL-BXz6Yvu-50" value="" style="endArrow=classic;html=1;rounded=0;entryX=0.5;entryY=0;entryDx=0;entryDy=0;exitX=0.5;exitY=1;exitDx=0;exitDy=0;" edge="1" parent="1" source="fTqVYzRrUTEL-BXz6Yvu-37" target="fTqVYzRrUTEL-BXz6Yvu-38">
          <mxGeometry width="50" height="50" relative="1" as="geometry">
            <mxPoint x="147" y="539" as="sourcePoint" />
            <mxPoint x="197" y="489" as="targetPoint" />
          </mxGeometry>
        </mxCell>
        <mxCell id="fTqVYzRrUTEL-BXz6Yvu-51" value="" style="endArrow=classic;html=1;rounded=0;entryX=0.5;entryY=0;entryDx=0;entryDy=0;exitX=0.5;exitY=1;exitDx=0;exitDy=0;" edge="1" parent="1" source="fTqVYzRrUTEL-BXz6Yvu-38" target="fTqVYzRrUTEL-BXz6Yvu-39">
          <mxGeometry width="50" height="50" relative="1" as="geometry">
            <mxPoint x="147" y="539" as="sourcePoint" />
            <mxPoint x="197" y="489" as="targetPoint" />
          </mxGeometry>
        </mxCell>
        <mxCell id="fTqVYzRrUTEL-BXz6Yvu-52" value="" style="endArrow=classic;html=1;rounded=0;entryX=0.5;entryY=0;entryDx=0;entryDy=0;exitX=0.5;exitY=1;exitDx=0;exitDy=0;" edge="1" parent="1" source="fTqVYzRrUTEL-BXz6Yvu-39" target="fTqVYzRrUTEL-BXz6Yvu-40">
          <mxGeometry width="50" height="50" relative="1" as="geometry">
            <mxPoint x="147" y="539" as="sourcePoint" />
            <mxPoint x="197" y="489" as="targetPoint" />
          </mxGeometry>
        </mxCell>
        <mxCell id="fTqVYzRrUTEL-BXz6Yvu-53" value="" style="endArrow=classic;html=1;rounded=0;entryX=0.5;entryY=0;entryDx=0;entryDy=0;exitX=0.5;exitY=1;exitDx=0;exitDy=0;" edge="1" parent="1" source="fTqVYzRrUTEL-BXz6Yvu-40" target="fTqVYzRrUTEL-BXz6Yvu-41">
          <mxGeometry width="50" height="50" relative="1" as="geometry">
            <mxPoint x="147" y="539" as="sourcePoint" />
            <mxPoint x="197" y="489" as="targetPoint" />
          </mxGeometry>
        </mxCell>
        <mxCell id="fTqVYzRrUTEL-BXz6Yvu-54" value="" style="endArrow=classic;html=1;rounded=0;entryX=0.5;entryY=0;entryDx=0;entryDy=0;exitX=0.5;exitY=1;exitDx=0;exitDy=0;" edge="1" parent="1" source="fTqVYzRrUTEL-BXz6Yvu-41" target="fTqVYzRrUTEL-BXz6Yvu-42">
          <mxGeometry width="50" height="50" relative="1" as="geometry">
            <mxPoint x="147" y="539" as="sourcePoint" />
            <mxPoint x="197" y="489" as="targetPoint" />
          </mxGeometry>
        </mxCell>
      </root>
    </mxGraphModel>
  </diagram>
</mxfile>
